<svg width="32" height="30" viewBox="0 0 32 30" fill="none" xmlns="http://www.w3.org/2000/svg">
<path fill-rule="evenodd" clip-rule="evenodd" d="M16.0001 0C7.52841 0 0.666748 6.86167 0.666748 15.3333C0.666748 22.1183 5.05591 27.8492 11.1509 29.8808C11.9176 30.015 12.2051 29.555 12.2051 29.1525C12.2051 28.7883 12.1859 27.5808 12.1859 26.2967C8.33342 27.0058 7.33675 25.3575 7.03008 24.495C6.85758 24.0542 6.11008 22.6933 5.45842 22.3292C4.92175 22.0417 4.15508 21.3325 5.43925 21.3133C6.64675 21.2942 7.50925 22.425 7.79675 22.885C9.17675 25.2042 11.3809 24.5525 12.2626 24.15C12.3967 23.1533 12.7992 22.4825 13.2401 22.0992C9.82842 21.7158 6.26342 20.3933 6.26342 14.5283C6.26342 12.8608 6.85758 11.4808 7.83508 10.4075C7.68175 10.0242 7.14508 8.4525 7.98841 6.34417C7.98841 6.34417 9.27258 5.94167 12.2051 7.91583C13.4317 7.57083 14.7351 7.39833 16.0384 7.39833C17.3417 7.39833 18.6451 7.57083 19.8717 7.91583C22.8042 5.9225 24.0884 6.34417 24.0884 6.34417C24.9317 8.4525 24.3951 10.0242 24.2417 10.4075C25.2192 11.4808 25.8134 12.8417 25.8134 14.5283C25.8134 20.4125 22.2292 21.7158 18.8176 22.0992C19.3734 22.5783 19.8526 23.4983 19.8526 24.9358C19.8526 26.9867 19.8334 28.635 19.8334 29.1525C19.8334 29.555 20.1209 30.0342 20.8876 29.8808C26.9443 27.8492 31.3334 22.0992 31.3334 15.3333C31.3334 6.86167 24.4717 0 16.0001 0Z" fill="white"/>
</svg>
